<svg width="227" height="200" viewBox="0 0 227 200" fill="none" xmlns="http://www.w3.org/2000/svg">
<rect width="226.597" height="200" fill="white"/>
<path d="M179.867 133.734C179.867 133.734 186.067 148.868 172.667 150.468C159.2 152.068 158.134 156.068 158.4 161.668C158.6 166.201 166.734 190.001 155.6 191.468C148.067 192.468 150.8 194.268 153.334 195.268C154.934 195.934 156.667 196.334 158.4 196.468C160.8 196.601 163.334 196.134 159.867 192.734C154.334 187.268 144.534 190.668 144.534 190.668C144.534 190.668 138.334 193.134 137.4 186.068" stroke="#F4F4F4" stroke-miterlimit="10"/>
<path d="M191.667 39.9336H59.4004V133.667H191.667V39.9336Z" fill="#FCFCFC"/>
<path d="M56.3329 98.668C56.5329 99.468 68.8662 119.535 68.8662 119.535L84.7995 122.268L84.3329 126.335C84.3329 126.335 68.1329 126.468 63.6662 123.735C59.5329 121.268 45.8662 104.335 45.8662 104.335L56.3329 98.668Z" fill="#0073E5"/>
<path d="M66.7995 197.6C67.5995 194.133 58.5995 193.267 56.5995 192.933C54.6662 192.6 53.2662 192.733 53.2662 192.733L51.8662 197.2C51.9329 197.2 64.9329 197.6 66.7995 197.6Z" fill="#0073E5"/>
<path d="M67.0665 197.401L51.5332 196.867V198.134L67.0665 198.267V197.401Z" fill="#E6E6E6"/>
<path d="M56.1335 197.6C56.4002 194.2 47.9335 193.267 45.9335 192.933C44.0002 192.6 42.6002 192.733 42.6002 192.733L41.2002 197.2C41.2669 197.2 54.2669 197.667 56.1335 197.6Z" fill="#0076FF"/>
<path d="M56.3995 197.401L40.8662 196.867V198.134L56.3995 198.267V197.401Z" fill="#F2F2F2"/>
<path d="M45.333 131.867C45.333 131.867 48.9997 151.334 49.5997 157.801C50.2663 164.801 53.333 193.001 53.333 193.001H57.533C57.533 193.001 57.533 164.334 57.533 156.867C57.533 150.134 57.533 132.267 57.533 132.267L45.333 131.867Z" fill="#B3B3B3"/>
<path d="M37.7332 131.534C34.7999 138.134 39.7999 155.334 39.8666 161.8C39.9332 168.8 42.5332 192.934 42.5332 192.934L47.1999 193.334C47.1999 193.334 47.2666 169 47.8666 161.6C48.3999 154.867 49.8666 133 49.8666 133C49.8666 133 40.6666 124.934 37.7332 131.534Z" fill="#B3B3B3"/>
<path d="M71.7998 107.066C71.7998 107.066 75.4665 102.4 77.5331 102.933C80.5998 103.733 76.1998 109.266 74.5998 109.266C72.9331 109.4 71.7998 107.066 71.7998 107.066Z" fill="#EBEBEB"/>
<path d="M36.4005 132.398C36.4005 132.398 27.3338 94.6648 47.0671 93.9981C66.8005 93.2648 59.6005 133.731 59.6005 133.731L36.4005 132.398Z" fill="#0076FF"/>
<path d="M83.667 123.268C83.667 123.268 85.4003 122.002 86.9337 122.135C88.4003 122.268 92.9337 125.001 91.1337 126.601C89.267 128.268 84.3337 125.868 84.3337 125.868L83.667 123.268Z" fill="#EBEBEB"/>
<path d="M48.0665 79.332C48.0665 79.332 45.1332 87.932 50.3332 88.8654C55.5332 89.7987 54.8665 82.332 56.2665 82.3987C57.6665 82.4654 57.3332 85.4654 57.3332 85.4654L58.2665 85.532L60.5332 80.4654L48.0665 79.332Z" fill="#74112C"/>
<path d="M60.2004 81.2009C60.2004 81.2009 64.6671 75.4676 63.6671 73.3343C62.6671 71.1343 59.3338 72.5343 59.3338 72.5343C59.3338 72.5343 56.4671 70.4009 54.2004 71.0009C51.8671 71.5343 51.6671 72.6009 51.6671 72.6009C51.6671 72.6009 49.4004 71.7343 48.4004 73.0009C47.4004 74.2676 46.3338 85.6009 48.0004 87.4009C49.6004 89.0676 50.6004 84.2009 50.6004 84.2009C50.6004 84.2009 54.8671 81.4009 56.2004 81.4676C57.5338 81.5343 60.2004 81.2009 60.2004 81.2009Z" fill="#B3B3B3"/>
<path d="M55.7329 73.6004C51.8663 73.4004 48.5329 77.7337 48.1996 83.3337C48.0663 85.4671 48.3996 87.4671 49.1329 89.2004L46.5996 94.0004C46.5996 94.0004 51.9329 97.7337 51.9329 97.6004C51.9329 97.5337 52.3996 95.3337 52.7996 93.4004C53.3329 93.6671 53.9329 93.8004 54.5996 93.8671C58.4663 94.0671 61.7996 89.7337 62.1329 84.1337C62.4663 78.5337 59.5996 73.8004 55.7329 73.6004Z" fill="#EBEBEB"/>
<path d="M61.6 79.3339C61.6 79.3339 55.8666 78.2672 54.7333 79.3339C53.6 80.4005 53.0666 83.7339 53.0666 83.7339H51.6666C51.6666 83.7339 51.6 80.8672 50.7333 81.3339C49.8666 81.8005 50.4666 85.8005 50.0666 87.4005C49.6666 89.0005 48 88.9338 47.1333 86.9338C46.2666 84.9338 47.5333 76.7339 47.5333 76.7339L50.3333 73.8672L54.2 72.8672L58.1333 73.4672L61.6 74.2672V79.3339Z" fill="#B3B3B3"/>
<path d="M159.533 84.4669C159.533 84.3336 159.533 84.2003 159.533 84.0669L167.266 82.2669L166.6 76.1336L158.333 76.6669C157.733 74.8669 156.933 73.2003 156 71.6003L161.8 65.8669L157.933 61.0003L151.333 65.9336C149.866 64.6003 148.266 63.4003 146.533 62.4669L149 54.4669L143 52.2003L139.866 59.9336C138.066 59.5336 136.2 59.2669 134.266 59.2669C134.133 59.2669 134 59.2669 133.866 59.2669L132.133 50.9336L125.866 51.8669L127 60.3336C125 60.9336 123.066 61.8003 121.266 62.8669L115.866 56.5336L110.533 60.5336L115.8 67.3336C114.533 68.6669 113.466 70.2003 112.533 71.8003L104.666 69.5336L102.133 75.6003L109.733 78.6669C109.333 80.4669 109.066 82.4003 109.066 84.3336L101.333 86.4003L101.733 92.8669L110.066 91.6003C110.666 93.6003 111.533 95.5336 112.6 97.3336L106.466 102.734L110.533 107.534L117.066 102.8C118.6 104.2 120.266 105.467 122.066 106.467L119.333 113.934L125.466 116.267L128.4 108.934C130.333 109.4 132.266 109.667 134.333 109.667C134.4 109.667 134.4 109.667 134.466 109.667L136.133 117.4L142.666 116.267L141.466 108.667C143.533 108.067 145.4 107.2 147.2 106.134L152.733 112.067L157.466 107.934L152.6 101.8C154 100.334 155.2 98.6669 156.2 96.9336L163.8 99.2003L166.066 93.4003L158.8 90.3336C159.266 88.2669 159.533 86.4003 159.533 84.4669ZM134.333 96.4669C127.533 96.4669 122 90.9336 122 84.1336C122 77.3336 127.533 71.8003 134.333 71.8003C141.133 71.8003 146.666 77.3336 146.666 84.1336C146.666 90.9336 141.133 96.4669 134.333 96.4669Z" fill="#EBEBEB"/>
<path d="M102.067 110.066C102.067 109.999 102.067 109.933 102.067 109.866L103.734 109.466C104.667 109.266 105.134 108.266 104.734 107.399L104.667 107.333C104.4 106.799 103.8 106.399 103.2 106.466L102.6 106.533C102 106.599 101.4 106.199 101.134 105.666C101.067 105.533 101 105.466 101 105.333C100.734 104.733 100.8 104.066 101.267 103.666L101.467 103.466C102.2 102.733 102 101.466 101 101.066L100.867 100.999C100.4 100.799 99.8002 100.866 99.4002 101.199L99.3336 101.266C98.8002 101.666 98.0669 101.666 97.5336 101.266C97.4002 101.199 97.3336 101.066 97.2002 100.999C96.6669 100.599 96.4002 99.9992 96.6002 99.3326L96.8002 98.7326C97.0669 97.7992 96.4002 96.8659 95.4002 96.7992H95.3336C94.7336 96.7992 94.1336 97.1326 93.9336 97.7326L93.7336 98.1992C93.4669 98.7992 92.8669 99.1992 92.2002 99.1326C92.0669 99.1326 91.8669 99.1326 91.7336 99.0659C91.0669 98.9992 90.5336 98.5326 90.4002 97.9326L90.2669 97.1992C90.0669 96.2659 89.0669 95.7326 88.2002 96.1992H88.1336C87.5336 96.4659 87.2002 97.1326 87.3336 97.7992L87.4002 98.2659C87.5336 98.9326 87.2002 99.5992 86.5336 99.8659L86.0002 100.066C85.4002 100.333 84.6669 100.199 84.2669 99.6659L83.9336 99.3326C83.2669 98.5992 82.0669 98.6659 81.5336 99.5326L81.4669 99.5992C81.1336 100.133 81.2002 100.799 81.5336 101.266L81.8002 101.666C82.2002 102.199 82.2002 102.933 81.8002 103.466C81.7336 103.533 81.6669 103.599 81.6669 103.666C81.2669 104.199 80.6669 104.399 80.0669 104.266L79.4002 104.066C78.4669 103.799 77.6002 104.466 77.5336 105.399V105.533C77.4669 106.199 77.8669 106.733 78.4669 106.999L78.8002 107.133C79.4002 107.399 79.8002 108.066 79.7336 108.733C79.7336 108.866 79.7336 108.999 79.6669 109.066C79.6002 109.666 79.2002 110.199 78.6002 110.333L77.8669 110.533C77.0002 110.733 76.5336 111.666 76.8669 112.533V112.599C77.1336 113.199 77.8002 113.599 78.4669 113.533L78.8669 113.466C79.5336 113.333 80.2002 113.733 80.4669 114.399C80.5336 114.533 80.6002 114.733 80.6669 114.866C80.9336 115.466 80.8002 116.199 80.3336 116.599L80.0669 116.799C79.2669 117.466 79.4002 118.733 80.3336 119.199C80.8002 119.466 81.4669 119.399 81.9336 119.066L82.2002 118.866C82.7336 118.466 83.4669 118.533 84.0002 118.933C84.1336 119.066 84.2669 119.133 84.4002 119.199C84.9336 119.599 85.2002 120.266 84.9336 120.933L84.8669 121.199C84.5336 122.133 85.2002 123.133 86.2002 123.199C86.8002 123.199 87.4002 122.866 87.6002 122.266L87.6669 122.066C87.9336 121.399 88.6002 121.066 89.2669 121.133C89.7336 121.199 90.2669 121.266 90.7336 121.266H90.8002L91.1336 122.799C91.3336 123.733 92.4002 124.266 93.2669 123.799L93.4002 123.733C94.0002 123.466 94.2669 122.799 94.2002 122.199L94.1336 121.999C94.0002 121.333 94.4002 120.666 95.0669 120.399C95.2669 120.333 95.4002 120.266 95.6002 120.199C96.2002 119.933 96.8669 120.066 97.3336 120.533L97.5336 120.733C98.2669 121.466 99.4669 121.333 99.9336 120.399C100.2 119.866 100.134 119.266 99.8002 118.799L99.6669 118.666C99.2669 118.133 99.2669 117.399 99.6669 116.866C99.7336 116.733 99.8669 116.599 99.9336 116.466C100.267 115.933 100.934 115.733 101.6 115.866L102.067 115.999C103 116.266 103.934 115.599 104 114.599C104 113.999 103.667 113.399 103.067 113.199L102.734 113.066C102.134 112.799 101.734 112.133 101.867 111.466C102.067 110.999 102.067 110.533 102.067 110.066ZM93.0002 114.933C88.4002 116.666 84.0669 112.399 85.8669 107.799C86.4002 106.466 87.4669 105.399 88.8002 104.866C93.4002 103.133 97.7336 107.399 95.9336 111.999C95.4669 113.399 94.4002 114.466 93.0002 114.933Z" fill="#0076FF"/>
<path d="M154.267 187.266H114.4V158.066H154.267V187.266Z" fill="#B3B3B3"/>
<path d="M152.866 159.535H115.866V185.735H152.866V159.535Z" fill="#EAEAEA"/>
<path d="M137.134 186.801H131.667V196.067H137.134V186.801Z" fill="#B3B3B3"/>
<path d="M142.667 195.266H126.134V196.799H142.667V195.266Z" fill="#B3B3B3"/>
<path d="M149.4 161.602H119.333V185.668H149.4V161.602Z" fill="white"/>
<path d="M51.1999 103.667C54.8665 108.734 59.1999 114.734 59.1999 114.734L71.3999 106.734L74.0665 109.534C74.0665 109.534 61.8665 123.467 56.5332 121.534C52.9999 120.267 46.6665 114.8 42.7999 111.134C40.7999 109.267 40.3999 106.267 41.8665 104C43.9999 100.6 48.8665 100.467 51.1999 103.667Z" fill="#0073E5"/>
<path d="M134.275 175.619L134.129 170.182H135.926L135.775 175.619H134.275ZM135.028 178.456C134.399 178.456 134.005 178.096 134.005 177.518C134.005 176.934 134.399 176.574 135.028 176.574C135.662 176.574 136.05 176.934 136.05 177.518C136.05 178.096 135.662 178.456 135.028 178.456Z" fill="#B3B3B3"/>
<path d="M134.333 176.468H129.133C128.666 176.468 128.333 175.935 128.6 175.535L131.2 171.001L133.8 166.468C134.066 166.068 134.666 166.068 134.933 166.468L137.533 171.001L140.133 175.535C140.4 175.935 140.066 176.468 139.6 176.468H134.333Z" stroke="#EAEAEA" stroke-miterlimit="10"/>
</svg>
